<?xml version="1.0" encoding="UTF-8" standalone="no"?>
<!-- Generator: Adobe Illustrator 16.0.3, SVG Export Plug-In . SVG Version: 6.00 Build 0)  -->

<svg
   version="1.1"
   id="Capa_1"
   x="0px"
   y="0px"
   width="2037.9114"
   height="720"
   viewBox="0 0 2037.9114 720"
   enable-background="new 0 0 612 792"
   xml:space="preserve"
   sodipodi:docname="Logo de BIVA.svg"
   inkscape:version="1.1 (c68e22c387, 2021-05-23)"
   xmlns:inkscape="http://www.inkscape.org/namespaces/inkscape"
   xmlns:sodipodi="http://sodipodi.sourceforge.net/DTD/sodipodi-0.dtd"
   xmlns="http://www.w3.org/2000/svg"
   xmlns:svg="http://www.w3.org/2000/svg"><defs
   id="defs103" /><sodipodi:namedview
   id="namedview101"
   pagecolor="#ffffff"
   bordercolor="#666666"
   borderopacity="1.0"
   inkscape:pageshadow="2"
   inkscape:pageopacity="0.0"
   inkscape:pagecheckerboard="0"
   showgrid="false"
   fit-margin-top="0"
   fit-margin-left="0"
   fit-margin-right="0"
   fit-margin-bottom="0"
   inkscape:zoom="0.37140962"
   inkscape:cx="728.30639"
   inkscape:cy="286.7454"
   inkscape:window-width="1920"
   inkscape:window-height="1017"
   inkscape:window-x="1912"
   inkscape:window-y="-8"
   inkscape:window-maximized="1"
   inkscape:current-layer="Capa_1" />
<g
   id="g98"
   transform="matrix(2.3367664,0,0,2.3367664,305.23356,-568.62859)">
	<g
   id="g96">
		
		<path
   id="path4"
   style="fill:#4a4f55;fill-opacity:1"
   d="m -69.583984,245.56641 c -11.874,0.007 -23.749048,0.0448 -35.623046,0.0703 -14.351,0.031 -23.77325,9.41842 -23.78125,23.6914 -0.028,51.996 -0.027,103.99038 0,155.98438 0.007,13.842 9.52831,23.3308 23.32031,23.3418 25.373002,0.017 50.745189,0.12326 76.117189,-0.0527 10.749,-0.074 21.4370623,-1.26743 31.7890622,-4.39844 22.4459998,-6.786 38.2644378,-19.88134 40.8984378,-44.65234 1.779,-16.734 -1.344656,-32.15244 -14.597657,-44.02344 -6.405,-5.738 -13.97514,-9.53045 -22.4941401,-12.93945 5.2520001,-3.411 10.0010001,-6.78995 14.1250001,-11.00195 17.86,-18.242 19.613969,-61.70517 -17.3320314,-78.57617 -11.705,-5.346 -24.1207346,-7.23399 -36.8027346,-7.33399 -11.873,-0.093 -23.74514,-0.11625 -35.61914,-0.10937 z m 28.248046,39.51562 c 3.466313,0.0403 7.014454,0.25517 10.548829,0.9043 14.59,2.68 21.8717652,14.14936 17.384765,27.31836 -2.118,6.217 -6.830406,9.60595 -12.691406,11.75195 -5.101,1.867 -10.429594,2.49444 -15.808594,2.52344 -13.366,0.072 -26.733609,-0.0328 -40.099609,0.0742 -2.528,0.02 -3.460688,-0.58678 -3.429688,-3.30078 0.14,-12.116 0.124813,-24.23457 0.0078,-36.35157 -0.023,-2.369 0.746234,-2.94515 2.990234,-2.91015 7.742,0.122 15.487672,0.0469 24.888672,0.0469 4.881875,0.295 10.431797,-0.12376 16.208984,-0.0566 z m -40.720703,79.75391 c 16.745,0.111 33.492329,-0.0506 50.236329,0.10937 6.365999,0.062 12.686626,0.89028 18.640624,3.48828 8.229001,3.589 12.23878175,9.95364 12.30078175,18.80664 0.062,8.998 -4.31692195,15.37383 -12.66992175,18.92383 -6.471,2.751 -13.315453,3.10255 -20.189453,3.18555 -6.748,0.081 -13.496141,0.0166 -20.244141,0.0156 -9.373,0 -18.747187,-0.0904 -28.117187,0.0586 -2.67,0.043 -3.348219,-0.8392 -3.324219,-3.40821 0.118,-12.62099 0.130187,-25.24523 -0.0078,-37.86523 -0.029,-2.673 0.787,-3.33145 3.375,-3.31445 z" />
		<path
   fill-rule="evenodd"
   clip-rule="evenodd"
   fill="#009ee2"
   d="m 637.946,317.775 c -1.476,1.285 -1.895,2.902 -2.604,4.32 -19.276,38.507 -38.508,77.036 -57.797,115.537 -7.496,14.964 -26.556,17.918 -37.569,5.899 -6.542,-7.139 -7.775,-17.103 -3.108,-26.493 9.275,-18.667 18.628,-37.295 27.948,-55.941 17.356,-34.722 34.678,-69.462 52.082,-104.16 7.236,-14.426 24.566,-18.021 36.182,-7.642 2.368,2.115 4.072,4.703 5.481,7.521 26.771,53.565 53.564,107.119 80.313,160.695 5.829,11.675 1.589,25.042 -9.631,30.826 -11.338,5.845 -24.736,1.862 -30.724,-9.849 -13.515,-26.436 -26.652,-53.063 -39.944,-79.613 -6.423,-12.829 -12.844,-25.657 -19.269,-38.484 -0.421,-0.84 -0.868,-1.67 -1.36,-2.616 z"
   id="path6" />
		<path
   fill-rule="evenodd"
   clip-rule="evenodd"
   fill="#4a4f55"
   d="m 385.19,377.117 c 6.431,-12.825 12.691,-25.278 18.924,-37.745 13.764,-27.531 27.512,-55.067 41.266,-82.602 5.025,-10.059 14.569,-14.909 25.307,-12.856 10.025,1.917 17.388,10.301 18.22,21.042 0.323,4.175 -0.77,8.133 -2.659,11.912 -26.838,53.64 -53.634,107.302 -80.471,160.943 -4.236,8.466 -11.204,13.032 -20.661,13.027 -9.451,-0.005 -16.351,-4.58 -20.593,-13.065 -26.802,-53.609 -53.609,-107.217 -80.398,-160.833 -5.976,-11.962 -1.587,-25.512 10.055,-31.244 11.417,-5.622 24.737,-0.88 30.687,11.001 19.486,38.913 38.945,77.841 58.417,116.761 0.55,1.105 1.139,2.191 1.906,3.659 z"
   id="path8" />
		<path
   fill-rule="evenodd"
   clip-rule="evenodd"
   fill="#4a4f55"
   d="m 145.418,347.191 c 0,-27.003 -0.035,-54.007 0.018,-81.01 0.019,-9.836 5.826,-18.079 14.788,-21.362 9.121,-3.341 19.146,-0.69 25.436,6.821 3.676,4.39 5.238,9.536 5.236,15.24 -0.016,53.631 0.032,107.264 -0.037,160.896 -0.017,13.295 -9.977,23.182 -22.889,23.132 -12.832,-0.05 -22.526,-10.086 -22.542,-23.456 -0.032,-26.753 -0.01,-53.506 -0.01,-80.261 z"
   id="path10" />
		<path
   id="path12"
   style="fill:#4a4f55;fill-opacity:1"
   d="m -117.95117,500.4707 c -2.62038,0.0197 -5.24183,0.0725 -7.86133,0.0625 -3.045,-0.01 -4.75553,1.52663 -4.76953,4.51563 -0.063,13.596 -0.0375,27.19111 -0.0195,40.78711 0.003,2.884 1.62439,4.47614 4.40039,4.49414 6.229,0.039 12.48259,0.18389 18.68359,-0.28711 7.132,-0.542 12.265455,-5.29606 13.064455,-11.28906 0.979,-7.329 -1.629983,-11.38105 -9.333985,-14.49805 1.394,-1.209 2.96244,-2.2702 4.148438,-3.6582 3.127,-3.661 3.603063,-7.90986 1.789063,-12.25586 -2.233001,-5.349 -6.864951,-7.43442 -12.251951,-7.73242 -2.611,-0.145 -5.22924,-0.15843 -7.84961,-0.13868 z m 4.18359,8.19141 c 0.62363,-0.007 1.24669,-0.004 1.86719,0.0371 3.508,0.232 5.59745,2.34687 5.68945,5.67187 0.088,3.219 -1.97914,5.87327 -5.24414,6.19727 -2.716,0.269 -5.48075,0.0231 -8.21875,0.11914 -1.579,0.054 -1.88994,-0.74727 -1.83594,-2.07227 0.055,-1.368 0.0117,-2.74032 0.0117,-4.11132 -0.001,-5.837 -0.002,-5.83836 5.85938,-5.81836 0.623,0 1.24747,-0.0164 1.87109,-0.0234 z m -5.05273,19.93164 c 0.30379,0.007 0.63378,0.0352 0.98828,0.0859 0.854,0.122 1.74033,0.0195 2.61133,0.0195 0.003,-0.036 0.007,-0.0705 0.01,-0.10547 1.983,0.144 3.99032,0.14389 5.94532,0.46289 3.378,0.55 5.79921,3.19997 5.82421,6.29297 0.029,3.609 -1.82917,5.79786 -5.32617,6.63086 -3.693,0.879 -7.4392,0.26064 -11.1582,0.43164 -1.75,0.08 -1.56436,-1.18492 -1.56836,-2.29492 -0.008,-2.614 0.21145,-5.25189 -0.0605,-7.83789 -0.28,-2.66263 0.60783,-3.73161 2.73438,-3.68555 z" />
		<path
   id="path14"
   d="m 468.15625,499.80469 c -2.726,0.025 -4.40945,2.1572 -4.43945,5.7832 -0.043,4.947 -0.0137,9.89502 -0.0137,15.04102 -5.491,-3.544 -8.1729,-4.2846 -12.0039,-3.4336 -6.452,1.434 -10.74794,7.87555 -10.96094,16.43555 -0.217,8.684 3.89533,15.45066 10.36133,17.22266 3.158,0.865 6.19873,0.76943 9.05273,-0.85157 1.357,-0.77 2.53024,-1.86604 3.86524,-2.87304 0.754,3.245 2.82515,4.26934 5.66015,3.65234 2.786,-0.607 3.04702,-2.86258 3.04102,-5.26758 -0.031,-13.367 0.002,-26.73361 -0.0234,-40.09961 -0.007,-3.59 -1.72306,-5.63437 -4.53906,-5.60937 z m -11.54883,24.78906 c 3.459,-0.059 5.34946,2.12533 6.43946,5.23633 0.51099,1.453 0.58862,2.9148 0.64062,3.9668 0.038,2.46199 -0.29702,4.40231 -1.29102,6.19531 -1.319,2.379 -3.27464,3.71747 -6.05664,3.60547 -2.632,-0.106 -4.42662,-1.54289 -5.51562,-3.83789 -1.443,-3.042 -1.6537,-6.24199 -0.7207,-9.45899 0.941,-3.246 2.8769,-5.64703 6.5039,-5.70703 z"
   style="fill:#4a4f55;fill-opacity:1" />
		<path
   fill-rule="evenodd"
   clip-rule="evenodd"
   fill="#4a4f55"
   d="m 546.609,535.844 c 3.015,-8.913 5.716,-16.913 8.431,-24.909 0.92,-2.711 1.836,-5.423 2.825,-8.108 1,-2.715 3.082,-3.616 5.684,-2.688 2.521,0.899 3.332,3.004 2.451,5.476 -5.059,14.189 -10.192,28.352 -15.283,42.53 -0.677,1.886 -1.939,2.729 -3.944,2.793 -2.192,0.069 -3.612,-0.909 -4.321,-2.866 -5.042,-13.93 -10.088,-27.858 -15.025,-41.825 -0.891,-2.52 -0.79,-5.133 2.371,-6.14 3.151,-1.005 4.938,0.646 5.912,3.538 3.499,10.379 7.022,20.751 10.899,32.199 z"
   id="path16" />
		<path
   id="path18"
   d="m 495.41211,516.92188 c -8.779,0 -14.80067,5.92309 -15.88867,15.62109 -0.777,6.918 2.64136,14.08397 8.06836,16.91797 5.946,3.107 14.28364,2.35386 19.05664,-1.74414 1.845,-1.584 3.19314,-3.61942 1.61914,-5.85742 -1.642,-2.334 -3.87835,-1.60575 -5.90235,-0.0938 -0.893,0.66601 -1.81607,1.34911 -2.83007,1.78711 -4.265,1.842 -8.94275,-0.0345 -10.21875,-3.98046 -0.479,-1.481 -0.39194,-2.37774 1.53906,-2.30274 2.494,0.097 4.99419,0.0235 7.49219,0.0195 2.623,-0.005 5.24518,0.0173 7.86718,-0.0117 1.988,-0.021 3.3185,-0.90061 3.6875,-2.97461 1.511,-8.506 -5.88623,-17.38185 -14.49023,-17.38085 z m 0.2793,7.04296 c 2.49951,0.053 4.05843,1.90843 5.05078,4.30274 0.739,1.783 0.26997,2.48378 -1.70703,2.42578 -3.22,-0.095 -6.44266,-0.0254 -9.84766,-0.0254 0.522,-3.677 2.16927,-6.22316 5.69727,-6.66016 0.27909,-0.0345 0.54807,-0.0485 0.80664,-0.043 z"
   style="fill:#4a4f55;fill-opacity:1" />
		<path
   id="path20"
   d="m 695.0625,516.88477 c -6.82242,0.16052 -12.56827,4.5057 -14.60352,11.36132 -2.638,8.888 0.86172,18.34549 8.01172,21.64649 5.935,2.741 14.27402,1.60805 18.66602,-2.50196 1.719,-1.61099 2.75161,-3.5687 1.22461,-5.5957 -1.55,-2.058 -3.66528,-1.65778 -5.61328,-0.17578 -0.889,0.676 -1.80755,1.36199 -2.81055,1.83398 -4.059,1.91001 -8.6577,0.40347 -10.2207,-3.26953 -0.768,-1.806 -0.90575,-3.10182 1.78125,-2.92382 2.362,0.156 4.74223,0.0323 7.11523,0.0293 2.623,-0.004 5.24714,0.0243 7.86914,-0.0117 1.817,-0.026 3.06475,-0.80351 3.46875,-2.72851 1.528,-7.293 -4.64325,-16.37271 -11.90625,-17.47071 -1.01087,-0.15274 -2.00779,-0.21629 -2.98242,-0.19335 z m 0.375,7.05859 c 0.28135,-0.006 0.55437,0.0164 0.81641,0.0684 2.766,0.549 4.17992,2.51731 4.91992,5.07031 0.445,1.538 -0.57125,1.59694 -1.65625,1.58594 -1.496,-0.014 -2.99133,-0.003 -4.48633,-0.002 -0.249,0.002 -0.28281,-0.005 -0.74023,-0.0117 -4.72,-1.463 -4.91055,1.40537 -4.72071,-1.46289 -0.25284,-2.5511 3.14743,-5.18831 5.86719,-5.24805 z"
   style="fill:#4a4f55;fill-opacity:1" />
		<path
   id="path22"
   d="m 382.92773,516.76562 c -3.60639,0.0155 -7.155,0.98418 -10.54687,3.1543 -1.531,0.981 -1.84842,2.63885 -1.10742,4.33985 0.705,1.618 2.1367,2.09961 3.7207,1.84961 1.711,-0.272 3.37631,-0.82485 5.07031,-1.21485 6.795,-1.56 10.26711,1.43005 9.78711,8.87305 -4.412,-2.769 -8.74914,-3.18377 -13.24414,-1.63477 -4.195,1.446 -6.41909,4.70867 -6.37109,9.13867 0.05,4.422 2.31945,7.8761 6.31445,9.2461 4.237,1.452 8.3525,1.32936 12.0625,-1.55664 0.723,-0.564 1.28636,-1.78956 2.19336,-0.10156 1.338,2.489 3.70886,2.52046 5.88086,1.73046 2.172,-0.789 2.40753,-2.94587 2.39453,-5.04687 -0.03,-5 0.097,-10.004 -0.043,-15 -0.154,-5.504 -2.13172,-10.20522 -7.63672,-12.19922 -2.83062,-1.02506 -5.66963,-1.59021 -8.47461,-1.57813 z m 1.37696,20.69532 c 2.548,0.002 5.52345,0.61167 5.56445,3.63867 0.047,3.294 -2.95364,3.75075 -5.68164,3.84375 -2.516,-0.084 -5.08077,-0.58899 -5.13477,-3.58398 -0.059,-3.21001 2.66496,-3.89944 5.25196,-3.89844 z"
   style="fill:#4a4f55;fill-opacity:1" />
		<path
   id="path24"
   d="m 8.9199219,516.75781 c -3.6056228,0.0203 -7.1598438,0.99046 -10.5742188,3.07227 -1.59,0.969 -1.8253125,2.69498 -1.1953125,4.33398 0.608,1.582 2.03815627,2.21417 3.66015628,1.95117 1.71000002,-0.276 3.37740622,-0.80789 5.06640622,-1.21289 6.8199999,-1.642 10.3127659,1.3201 9.7597659,8.7461 -4.283,-2.577 -8.4989065,-3.03938 -12.8789065,-1.60938 -4.421,1.444 -6.6434219,4.62255 -6.6074219,9.31055 0.035,4.532 2.4718438,7.98269 6.7148438,9.30469 4.15,1.293 8.1116406,1.0829 11.6816406,-1.7461 0.614,-0.488 1.19,-1.9295 2.125,-0.0625 1.257,2.51 3.671234,2.50919 5.865234,1.74219 2.233,-0.781 2.393094,-2.91258 2.371094,-5.01758 -0.051,-4.87 -0.01963,-9.74228 -0.01563,-14.61328 0.005,-5.702 -1.875812,-10.48865 -7.507812,-12.59765 -2.824938,-1.05832 -5.660471,-1.61733 -8.4648441,-1.60157 z m 0.8535156,20.7168 c 0.1623735,-0.002 0.3246405,-10e-4 0.4863285,0.002 2.511,0.053 5.515703,0.5453 5.470703,3.7793 -0.045,3.185 -2.902735,3.57859 -5.552735,3.68359 -2.4579996,-0.112 -5.0965934,-0.43873 -5.1835934,-3.55273 -0.087187,-3.12375 2.3436939,-3.87568 4.7792969,-3.91211 z"
   style="fill:#4a4f55;fill-opacity:1" />
		<path
   id="path26"
   d="m 578.95508,516.75977 c -3.60315,0.0201 -7.15756,0.99032 -10.57813,3.01757 -1.547,0.917 -1.92029,2.59478 -1.27929,4.30078 0.612,1.626 2.01132,2.25221 3.61132,2.03321 1.71,-0.234 3.37941,-0.76874 5.06641,-1.17774 6.847,-1.662 10.27002,1.15439 9.91602,8.77539 -4.313,-2.667 -8.63886,-3.12846 -13.13086,-1.60546 -3.956,1.341 -6.18208,4.31526 -6.33008,8.32226 -0.184,4.994 1.62572,8.18828 5.76172,9.86328 4.318,1.749 8.51644,1.62035 12.39843,-1.22265 0.851,-0.623 1.43008,-1.84505 2.45508,0.002 1.248,2.245 3.55,2.26916 5.625,1.53516 2.011,-0.713 2.43135,-2.57429 2.40235,-4.61329 -0.069,-4.867 -0.0587,-9.7346 -0.0137,-14.59961 0.055,-5.81299 -1.64627,-10.77395 -7.44727,-13.00195 -2.82275,-1.08412 -5.65458,-1.64453 -8.45703,-1.6289 z m 0.76953,20.69921 c 0.1648,-0.002 0.33109,0.002 0.49609,0.008 2.47,0.094 5.49014,0.52073 5.49414,3.67773 0.004,3.386 -3.0084,3.67606 -5.6914,3.78906 -2.608,0.03 -5.11786,-0.72965 -5.13086,-3.59765 -0.0122,-2.87625 2.36004,-3.84913 4.83203,-3.87696 z"
   style="fill:#4a4f55;fill-opacity:1" />
		<path
   fill-rule="evenodd"
   clip-rule="evenodd"
   fill="#4a4f55"
   d="m 80.625,521.027 c 3.937,-4.352 8.545,-5.136 13.504,-3.169 5.006,1.986 6.883,6.353 7.184,11.352 0.321,5.356 0.352,10.735 0.327,16.104 -0.013,2.931 -0.758,5.579 -4.534,5.595 -3.123,0.013 -4.625,-1.81 -4.687,-5.886 -0.067,-4.374 0.02,-8.75 -0.029,-13.125 -0.047,-4.156 -1.753,-6.409 -4.952,-6.706 -3.78,-0.352 -6.373,1.54 -6.78,5.808 -0.438,4.584 -0.2,9.231 -0.256,13.852 -0.053,4.32 -1.257,5.99 -4.366,6.056 -3.288,0.068 -4.626,-1.696 -4.634,-6.18 -0.012,-7.251 0.041,-14.501 -0.026,-21.75 -0.024,-2.581 0.384,-4.826 3.236,-5.592 2.93,-0.788 4.784,0.614 6.013,3.641 z"
   id="path28" />
		<path
   id="path30"
   d="m 635.30273,516.92578 c -9.291,0.052 -15.92506,7.17013 -15.91406,17.07813 0.011,10.189 6.66106,17.41097 16.03906,17.41797 9.22,0.008 16.21911,-7.45338 16.28711,-17.35938 0.067,-9.838 -6.97411,-17.19072 -16.41211,-17.13672 z m 0.13282,7.65625 c 3.267,0 5.28253,1.95814 6.39453,4.86914 1.103,2.886 1.19136,5.84616 0.19336,8.78516 -1.095,3.225 -3.09463,5.43037 -6.76563,5.35937 -3.512,-0.065 -5.36011,-2.34456 -6.41211,-5.35156 -0.445,-1.267 -0.47528,-2.68183 -0.73828,-4.29883 0.284,-1.363 0.45461,-2.98814 0.97461,-4.49414 1.023,-2.966 3.09352,-4.86914 6.35352,-4.86914 z"
   style="fill:#4c5156;fill-opacity:1" />
		<path
   id="path32"
   d="m -73.857422,516.92383 c -9.389,-0.005 -16.163765,7.27008 -16.134766,17.33008 0.028,9.731 6.897532,17.09196 16.019532,17.16797 9.362,0.079 16.206422,-7.19029 16.232422,-17.23829 0.027,-10.131 -6.627188,-17.25576 -16.117188,-17.25976 z m 0.02734,7.60742 c 2.258019,-1.9e-4 4.487515,1.27764 5.861328,3.7793 1.052,1.915 1.405547,3.97736 1.310547,6.44336 0.042,1.999 -0.523844,4.15478 -1.839844,6.05078 -2.565,3.693 -7.800156,3.77308 -10.535156,0.20508 -2.552,-3.331 -2.689484,-10.10713 -0.271485,-13.45313 1.467657,-2.03016 3.48224,-3.02522 5.47461,-3.02539 z"
   style="fill:#4a4f55;fill-opacity:1" />
		<path
   id="path34"
   d="m 310.06445,516.92383 c -9.491,-0.028 -16.156,7.09437 -16.125,17.23437 0.03,10.073 6.85832,17.35168 16.19532,17.26368 9.244,-0.088 16.16259,-7.6364 16.05859,-17.5254 -0.103,-9.815 -6.87991,-16.94665 -16.12891,-16.97265 z m 0.17188,7.6582 c 3.292,0.107 5.16451,2.23624 6.22851,5.11524 0.559,1.515 0.91543,3.11576 0.73243,4.50976 0.021,2.171 -0.4525,3.95844 -1.3125,5.64844 -1.24,2.442 -3.21757,3.78428 -5.97657,3.73828 -2.747,-0.046 -4.74606,-1.407 -5.91406,-3.875 -1.568,-3.313 -1.64241,-6.75492 -0.44141,-10.16992 1.089,-3.101 3.2336,-5.0788 6.6836,-4.9668 z"
   style="fill:#4a4f55;fill-opacity:1" />
		<path
   fill-rule="evenodd"
   clip-rule="evenodd"
   fill="#4a4f55"
   d="m 227.054,547.304 c -7.688,7.378 -17.828,4.576 -20.154,-5.619 -1.566,-6.861 -0.745,-13.917 -0.521,-20.879 0.076,-2.347 2.043,-3.745 4.477,-3.583 2.77,0.185 4.271,1.872 4.31,4.678 0.068,4.989 0.037,9.981 0.126,14.971 0.052,2.844 1.185,5.118 4.055,6.081 4.074,1.367 7.743,-1.761 7.913,-6.908 0.155,-4.737 0.013,-9.482 0.061,-14.225 0.022,-2.241 1.15,-3.789 3.317,-4.446 1.872,-0.567 3.408,0.099 4.702,1.483 1.047,1.119 0.969,2.496 0.967,3.875 -0.009,7.237 -0.012,14.475 0,21.712 0.003,2.507 0.344,5.258 -2.763,6.243 -3.103,0.983 -5.3,-0.368 -6.49,-3.383 z"
   id="path36" />
		<path
   fill-rule="evenodd"
   clip-rule="evenodd"
   fill="#4a4f55"
   d="m 342.237,520.864 c 3.837,-4.166 8.414,-4.913 13.356,-3.038 5.092,1.932 6.923,6.419 7.271,11.309 0.415,5.841 0.284,11.732 0.143,17.597 -0.065,2.759 -1.796,4.273 -4.685,4.17 -2.746,-0.098 -4.141,-1.714 -4.212,-4.275 -0.132,-4.741 -0.002,-9.49 -0.054,-14.234 -0.053,-4.741 -1.996,-7.138 -5.724,-7.217 -3.759,-0.08 -6.055,2.24 -6.274,6.793 -0.205,4.237 -0.09,8.488 -0.113,12.733 -0.025,4.507 -1.305,6.23 -4.612,6.21 -3.217,-0.021 -4.379,-1.687 -4.388,-6.361 -0.012,-6.993 0.025,-13.987 -0.018,-20.981 -0.015,-2.584 -0.056,-5.151 3.003,-6.137 3.111,-1.003 4.915,0.78 6.307,3.431 z"
   id="path38" />
		<path
   fill-rule="evenodd"
   clip-rule="evenodd"
   fill="#4a4f55"
   d="m 120.055,551.409 c -2.947,-0.196 -6.583,-0.948 -9.63,-3.406 -1.902,-1.534 -3.175,-3.528 -1.576,-5.814 1.524,-2.179 3.749,-1.619 5.661,-0.35 2.117,1.404 4.273,2.633 6.893,2.509 1.615,-0.076 3.494,-0.162 3.907,-2.165 0.426,-2.063 -1.275,-2.777 -2.82,-3.366 -2.79,-1.063 -5.699,-1.86 -8.387,-3.131 -4.301,-2.034 -6.438,-5.798 -5.899,-9.906 0.592,-4.506 3.327,-7.06 7.629,-8.162 4.917,-1.261 9.667,-0.854 14.164,1.495 2.329,1.216 4.439,2.958 2.984,5.913 -1.456,2.955 -3.99,1.829 -6.162,0.828 -2.308,-1.063 -4.611,-1.902 -7.195,-1.467 -1.112,0.187 -2.3,0.339 -2.598,1.721 -0.328,1.517 0.573,2.382 1.816,2.869 2.083,0.817 4.213,1.516 6.322,2.27 6.785,2.428 9.538,5.724 8.979,10.744 -0.611,5.49 -4.747,8.812 -11.739,9.413 -0.496,0.041 -0.999,0.005 -2.349,0.005 z"
   id="path40" />
		<path
   fill-rule="evenodd"
   clip-rule="evenodd"
   fill="#4a4f55"
   d="m 727.054,516.932 c 3.683,0.08 7.202,0.799 10.242,2.995 1.732,1.251 2.891,2.914 1.738,5.125 -1.195,2.289 -3.173,2.078 -5.161,1.208 -2.29,-1.002 -4.554,-2.137 -7.125,-2.007 -1.438,0.073 -3.235,-0.04 -3.642,1.889 -0.452,2.149 1.345,2.75 2.827,3.328 2.431,0.949 4.969,1.625 7.381,2.615 4.957,2.036 7.218,5.285 6.857,9.563 -0.413,4.922 -3.483,8.063 -8.826,9.228 -4.983,1.085 -9.668,0.511 -14.006,-2.239 -2.273,-1.44 -4.157,-3.417 -2.563,-6.136 1.733,-2.957 4.231,-1.681 6.436,-0.216 2.131,1.415 4.396,2.371 7.019,2.002 1.376,-0.194 2.842,-0.46 3.156,-2.13 0.32,-1.694 -0.938,-2.534 -2.223,-3.044 -2.772,-1.102 -5.692,-1.858 -8.406,-3.079 -5.175,-2.329 -7.394,-6.522 -6.321,-11.394 1.078,-4.896 5.707,-7.724 12.617,-7.708 z"
   id="path42" />
		<path
   fill-rule="evenodd"
   clip-rule="evenodd"
   fill="#4a4f55"
   d="m -21.949,516.95 c 3.568,0.021 6.931,0.8 9.923,2.812 1.958,1.315 3.107,3.16 1.88,5.407 -1.184,2.169 -3.251,1.949 -5.255,1.047 -2.504,-1.127 -4.987,-2.346 -7.868,-1.867 -1.24,0.206 -2.597,0.394 -2.883,1.906 -0.287,1.521 0.838,2.309 2.016,2.771 2.776,1.089 5.651,1.933 8.4,3.082 5.131,2.145 7.187,5.305 6.73,9.988 -0.432,4.433 -3.482,7.564 -8.478,8.735 -5.377,1.26 -10.408,0.521 -14.975,-2.663 -2.197,-1.53 -3.322,-3.732 -1.683,-6.076 1.506,-2.152 3.794,-1.472 5.672,-0.185 2.445,1.677 4.971,2.859 8.027,2.305 1.286,-0.232 2.508,-0.649 2.7,-2.149 0.186,-1.445 -0.705,-2.387 -1.954,-2.856 -2.561,-0.964 -5.219,-1.687 -7.737,-2.746 -3.285,-1.383 -6.202,-3.251 -7.069,-7.111 -1.684,-7.514 3.332,-12.477 12.554,-12.4 z"
   id="path44" />
		<path
   fill-rule="evenodd"
   clip-rule="evenodd"
   fill="#4a4f55"
   d="m 243.064,535.322 c -0.103,-13.512 10.938,-21.736 21.946,-17.353 2.986,1.188 5.449,3.056 6.537,6.252 0.624,1.833 0.347,3.622 -1.48,4.524 -1.61,0.795 -3.542,0.912 -4.762,-0.757 -2.146,-2.933 -4.847,-4.61 -8.336,-3.101 -4.1,1.773 -5.032,5.557 -4.91,9.668 0.114,3.826 1.163,7.163 5.036,8.832 2.967,1.279 5.409,0.27 7.283,-2.096 1.809,-2.283 3.899,-3.48 6.278,-1.262 2.372,2.211 1.076,4.707 -0.625,6.629 -3.705,4.183 -8.475,5.407 -13.907,4.398 -6.273,-1.164 -10.138,-5.051 -12.135,-10.892 -0.636,-1.856 -0.752,-3.894 -0.925,-4.842 z"
   id="path46" />
		<path
   fill-rule="evenodd"
   clip-rule="evenodd"
   fill="#4a4f55"
   d="m 143.291,536.681 c -0.001,-1.994 -0.069,-3.992 0.015,-5.983 0.132,-3.142 0.614,-6.231 -4.404,-5.572 -1.797,0.237 -3.118,-1.581 -3.055,-3.568 0.074,-2.351 1.604,-3.909 3.844,-3.672 3.45,0.366 3.954,-1.226 3.633,-4.044 -0.183,-1.599 -0.087,-3.24 -0.016,-4.857 0.125,-2.837 1.801,-4.473 4.494,-4.479 2.69,-0.006 4.38,1.584 4.479,4.46 0.038,1.121 0.101,2.253 -0.007,3.364 -0.34,3.509 -0.374,6.433 4.739,5.573 2.243,-0.378 3.67,1.346 3.621,3.758 -0.049,2.423 -1.464,3.903 -3.796,3.561 -4.228,-0.623 -4.838,1.326 -4.625,4.956 0.305,5.218 0.059,10.467 0.084,15.702 0.016,3.124 -1.271,5.034 -4.598,5.012 -3.179,-0.021 -4.348,-1.998 -4.394,-4.86 -0.053,-3.117 -0.013,-6.235 -0.014,-9.351 z"
   id="path48" />
		<path
   fill-rule="evenodd"
   clip-rule="evenodd"
   fill="#4a4f55"
   d="m 194.295,536.933 c -10e-4,3.116 0.022,6.232 -0.007,9.349 -0.026,2.787 -1.334,4.49 -4.239,4.61 -3.098,0.129 -4.667,-1.586 -4.717,-4.523 -0.103,-5.981 -0.119,-11.969 0.007,-17.948 0.047,-2.248 -0.293,-3.493 -2.962,-3.174 -2.639,0.316 -4.531,-1.004 -4.485,-3.735 0.045,-2.725 2.021,-3.946 4.611,-3.677 2.405,0.25 3.039,-0.686 2.832,-2.925 -0.183,-1.978 -0.112,-3.989 -0.013,-5.979 0.141,-2.835 1.868,-4.448 4.554,-4.422 2.692,0.026 4.352,1.648 4.413,4.525 0.024,1.121 0.1,2.253 -0.01,3.363 -0.354,3.566 -0.179,6.323 4.809,5.515 2.197,-0.355 3.662,1.323 3.562,3.787 -0.098,2.442 -1.518,3.871 -3.836,3.522 -4.28,-0.645 -4.993,1.392 -4.566,4.985 0.261,2.214 0.047,4.482 0.047,6.727 z"
   id="path50" />
		<path
   fill-rule="evenodd"
   clip-rule="evenodd"
   fill="#4c5156"
   d="m 612.516,525.4 c 0.003,6.613 -0.021,13.228 0.015,19.842 0.017,3.066 -0.66,5.532 -4.365,5.664 -3.048,0.108 -4.677,-1.604 -4.695,-5.407 -0.065,-13.353 -0.018,-26.706 -10e-4,-40.058 0.004,-3.131 1.179,-5.59 4.638,-5.554 3.488,0.037 4.465,2.502 4.43,5.671 -0.076,6.614 -0.025,13.228 -0.022,19.842 z"
   id="path52" />
		<path
   fill-rule="evenodd"
   clip-rule="evenodd"
   fill="#4c5157"
   d="m 407.665,525.673 c -0.003,-6.738 -0.04,-13.478 0.012,-20.215 0.027,-3.613 1.771,-5.826 4.533,-5.617 3.42,0.259 4.543,2.548 4.539,5.697 -0.02,13.227 -0.002,26.454 -0.014,39.681 -0.003,3.011 -0.711,5.549 -4.409,5.688 -3.178,0.119 -4.606,-1.6 -4.643,-5.768 -0.057,-6.489 -0.014,-12.978 -0.018,-19.466 z"
   id="path54" />
		<path
   fill-rule="evenodd"
   clip-rule="evenodd"
   fill="#4a4f55"
   d="m -50.987,525.28 c 0,-6.491 -0.028,-12.982 0.01,-19.474 0.023,-3.889 1.737,-6.044 4.624,-5.994 2.926,0.05 4.362,2.042 4.363,6.103 0.005,13.107 -0.032,26.216 0.026,39.322 0.014,3.113 -0.652,5.517 -4.324,5.654 -3.207,0.121 -4.666,-1.661 -4.69,-5.763 -0.038,-6.615 -0.009,-13.232 -0.009,-19.848 z"
   id="path56" />
		<path
   fill-rule="evenodd"
   clip-rule="evenodd"
   fill="#4a4f55"
   d="m 52.527,525.319 c 0,-6.606 -0.018,-13.214 0.008,-19.82 0.014,-3.552 1.709,-5.658 4.478,-5.688 2.855,-0.03 4.605,1.961 4.617,5.561 0.042,13.339 0.007,26.678 0.026,40.016 0.004,3.115 -0.865,5.446 -4.521,5.514 -3.229,0.061 -4.593,-1.63 -4.604,-5.76 -0.016,-6.609 -0.004,-13.215 -0.004,-19.823 z"
   id="path58" />
		<path
   fill-rule="evenodd"
   clip-rule="evenodd"
   fill="#4a4f55"
   d="m 667.621,520.808 c 1.73,-2.292 3.447,-3.796 6.098,-3.775 2.561,0.02 4.039,1.303 4.224,3.777 0.179,2.371 -0.798,4.03 -3.406,4.526 -5.814,1.105 -6.97,2.535 -7.035,8.498 -0.044,3.993 0.057,7.99 -0.035,11.982 -0.069,2.971 -1.282,5.132 -4.668,5.078 -3.419,-0.055 -4.357,-2.182 -4.331,-5.24 0.065,-7.488 0.047,-14.979 0.008,-22.469 -0.013,-2.454 -0.058,-4.858 2.906,-5.752 2.894,-0.873 4.768,0.462 6.239,3.375 z"
   id="path60" />
		<path
   fill-rule="evenodd"
   clip-rule="evenodd"
   fill="#4a4f55"
   d="m 278.188,533.965 c 0,-4 0.009,-8.002 -0.003,-12.002 -0.009,-2.852 1.446,-4.604 4.217,-4.725 2.987,-0.129 4.705,1.725 4.743,4.641 0.108,8.124 0.111,16.252 -0.003,24.377 -0.04,2.848 -1.489,4.743 -4.668,4.654 -3.213,-0.09 -4.295,-2.04 -4.289,-4.943 0.011,-4.001 0.003,-8.002 0.003,-12.002 z"
   id="path62" />
		<path
   fill-rule="evenodd"
   clip-rule="evenodd"
   fill="#4a4f55"
   d="m 173.416,534.21 c 0,4 -0.021,7.999 0.006,11.999 0.019,2.815 -1.171,4.536 -4.122,4.695 -2.915,0.157 -4.708,-1.464 -4.769,-4.155 -0.188,-8.369 -0.168,-16.746 -0.007,-25.117 0.052,-2.677 1.792,-4.514 4.611,-4.409 2.992,0.111 4.358,1.965 4.299,4.988 -0.077,3.999 -0.018,7.999 -0.018,11.999 z"
   id="path64" />
		<path
   fill-rule="evenodd"
   clip-rule="evenodd"
   fill="#4c5157"
   d="m 287.67,508.171 c -0.103,2.738 -2.375,4.825 -5.19,4.767 -2.767,-0.057 -4.944,-2.285 -4.916,-5.029 0.03,-2.854 2.521,-5.172 5.369,-4.993 2.717,0.17 4.839,2.523 4.737,5.255 z"
   id="path66" />
		<path
   fill-rule="evenodd"
   clip-rule="evenodd"
   fill="#4c5156"
   d="m 169.044,502.909 c 2.804,-0.003 4.944,2.101 4.998,4.911 0.059,3.045 -2.112,5.21 -5.127,5.111 -2.951,-0.096 -4.772,-2.038 -4.744,-5.061 0.027,-2.936 2.013,-4.958 4.873,-4.961 z"
   id="path68" />
		
		
		
		
		
		
		
		
		
		
		
		
		
	</g>
</g>
</svg>
